<svg xmlns="http://www.w3.org/2000/svg" version="1.1" xmlnsXlink="http://www.w3.org/1999/xlink" xmlnsSvgjs="http://svgjs.dev/svgjs" width="1440" height="560" preserveAspectRatio="none" viewBox="0 0 1440 560"><g mask="url(&quot;#SvgjsMask1000&quot;)" fill="none"><rect width="1440" height="560" x="0" y="0" fill="#0e2a47"></rect><path d="M 0,124 C 57.6,138.6 172.8,217.4 288,197 C 403.2,176.6 460.8,32 576,22 C 691.2,12 748.8,124.8 864,147 C 979.2,169.2 1036.8,117.6 1152,133 C 1267.2,148.4 1382.4,205.8 1440,224L1440 560L0 560z" fill="#184a7e"></path><path d="M 0,498 C 96,467.4 288,346.2 480,345 C 672,343.8 768,496.4 960,492 C 1152,487.6 1344,356.8 1440,323L1440 560L0 560z" fill="#2264ab"></path></g><defs><mask id="SvgjsMask1000"><rect width="1440" height="560" fill="#ffffff"></rect></mask></defs></svg>